 http://en.wikipedia.org/wiki/Aashiqui
 
http://www.imdb.com/title/tt0149573/


Format                                   : Matroska
Format version                           : Version 2
File size                                : 1.87 GiB
Duration                                 : 2h 27mn
Overall bit rate                         : 1 821 Kbps

Video
ID                                       : 1
Format                                   : AVC
Format/Info                              : Advanced Video Codec
Format profile                           : High@L4.1
Format settings, CABAC                   : Yes
Format settings, ReFrames                : 4 frames
Muxing mode                              : Header stripping
Codec ID                                 : V_MPEG4/ISO/AVC
Duration                                 : 2h 27mn
Bit rate                                 : 1 500 Kbps
Width                                    : 1 280 pixels
Height                                   : 544 pixels
Display aspect ratio                     : 2.35:1
Original display aspect ratio            : 2.35:1
Frame rate                               : 24.000 fps
Color space                              : YUV
Chroma subsampling                       : 4:2:0
Bit depth                                : 8 bits
Scan type                                : Progressive
Bits/(Pixel*Frame)                       : 0.090
Stream size                              : 1.50 GiB (80%)

Audio
ID                                       : 2
Format                                   : AC-3
Bit rate mode                            : Constant
Bit rate                                 : 320 Kbps
Channel(s)                               : 6 channels
Channel positions                        : Front: L C R, Side: L R, LFE
Sampling rate                            : 48.0 KHz
Bit depth                                : 16 bits
Compression mode                         : Lossy
Stream size                              : 337 MiB (18%)

 
http://www.shotpix.com/images/40471234113298797870.png 
http://www.shotpix.com/images/40759602359678674366.png 
http://www.shotpix.com/images/28085709213398482245.png 
http://www.shotpix.com/images/43775585864968764856.png 
http://www.shotpix.com/images/39791514698532315124.png 
http://www.shotpix.com/images/67756888078602629045.png 
http://www.shotpix.com/images/00024770024577439845.png 
http://www.shotpix.com/images/65193523454308017583.png 
http://www.shotpix.com/images/23809078528195880560.png 
http://www.shotpix.com/images/05265287310518625480.png